<mxfile host="Electron" agent="Mozilla/5.0 (X11; Linux x86_64) AppleWebKit/537.36 (KHTML, like Gecko) draw.io/26.0.4 Chrome/128.0.6613.186 Electron/32.2.5 Safari/537.36" version="26.0.4">
  <diagram name="Page-1" id="abIMOrLgSMVsaxVZEqVZ">
    <mxGraphModel dx="1114" dy="1198" grid="1" gridSize="10" guides="1" tooltips="1" connect="1" arrows="1" fold="1" page="1" pageScale="1" pageWidth="850" pageHeight="1100" math="0" shadow="0">
      <root>
        <mxCell id="0" />
        <mxCell id="1" parent="0" />
        <mxCell id="4wtoWIcL9oi0uaZ7Ag9l-14" style="edgeStyle=orthogonalEdgeStyle;rounded=0;orthogonalLoop=1;jettySize=auto;html=1;" edge="1" parent="1" source="4wtoWIcL9oi0uaZ7Ag9l-1" target="4wtoWIcL9oi0uaZ7Ag9l-3">
          <mxGeometry relative="1" as="geometry" />
        </mxCell>
        <mxCell id="4wtoWIcL9oi0uaZ7Ag9l-1" value="AWS Lambda Function" style="sketch=0;points=[[0,0,0],[0.25,0,0],[0.5,0,0],[0.75,0,0],[1,0,0],[0,1,0],[0.25,1,0],[0.5,1,0],[0.75,1,0],[1,1,0],[0,0.25,0],[0,0.5,0],[0,0.75,0],[1,0.25,0],[1,0.5,0],[1,0.75,0]];outlineConnect=0;fontColor=#232F3E;fillColor=#ED7100;strokeColor=#ffffff;dashed=0;verticalLabelPosition=bottom;verticalAlign=top;align=center;html=1;fontSize=12;fontStyle=0;aspect=fixed;shape=mxgraph.aws4.resourceIcon;resIcon=mxgraph.aws4.lambda;" vertex="1" parent="1">
          <mxGeometry x="190" y="417" width="78" height="78" as="geometry" />
        </mxCell>
        <mxCell id="4wtoWIcL9oi0uaZ7Ag9l-13" value="Private subnet" style="points=[[0,0],[0.25,0],[0.5,0],[0.75,0],[1,0],[1,0.25],[1,0.5],[1,0.75],[1,1],[0.75,1],[0.5,1],[0.25,1],[0,1],[0,0.75],[0,0.5],[0,0.25]];outlineConnect=0;gradientColor=none;html=1;whiteSpace=wrap;fontSize=12;fontStyle=0;container=1;pointerEvents=0;collapsible=0;recursiveResize=0;shape=mxgraph.aws4.group;grIcon=mxgraph.aws4.group_security_group;grStroke=0;strokeColor=#00A4A6;fillColor=#E6F6F7;verticalAlign=top;align=left;spacingLeft=30;fontColor=#147EBA;dashed=0;" vertex="1" parent="1">
          <mxGeometry x="340" y="350" width="350" height="210" as="geometry" />
        </mxCell>
        <mxCell id="4wtoWIcL9oi0uaZ7Ag9l-6" value="RDS Security group" style="fillColor=none;strokeColor=#DD3522;verticalAlign=top;fontStyle=0;fontColor=#DD3522;whiteSpace=wrap;html=1;" vertex="1" parent="4wtoWIcL9oi0uaZ7Ag9l-13">
          <mxGeometry x="190" y="30" width="140" height="160" as="geometry" />
        </mxCell>
        <mxCell id="4wtoWIcL9oi0uaZ7Ag9l-7" value="Lambda Security group" style="fillColor=none;strokeColor=#DD3522;verticalAlign=top;fontStyle=0;fontColor=#DD3522;whiteSpace=wrap;html=1;" vertex="1" parent="4wtoWIcL9oi0uaZ7Ag9l-13">
          <mxGeometry x="20" y="30" width="140" height="160" as="geometry" />
        </mxCell>
        <mxCell id="4wtoWIcL9oi0uaZ7Ag9l-10" style="edgeStyle=orthogonalEdgeStyle;rounded=0;orthogonalLoop=1;jettySize=auto;html=1;" edge="1" parent="4wtoWIcL9oi0uaZ7Ag9l-13" source="4wtoWIcL9oi0uaZ7Ag9l-3" target="4wtoWIcL9oi0uaZ7Ag9l-4">
          <mxGeometry relative="1" as="geometry" />
        </mxCell>
        <mxCell id="4wtoWIcL9oi0uaZ7Ag9l-3" value="Elastic Network&lt;div&gt;Interface (ENI)&lt;/div&gt;" style="sketch=0;outlineConnect=0;fontColor=#232F3E;gradientColor=none;fillColor=#8C4FFF;strokeColor=none;dashed=0;verticalLabelPosition=bottom;verticalAlign=top;align=center;html=1;fontSize=12;fontStyle=0;aspect=fixed;pointerEvents=1;shape=mxgraph.aws4.elastic_network_interface;" vertex="1" parent="4wtoWIcL9oi0uaZ7Ag9l-13">
          <mxGeometry x="51" y="67" width="78" height="78" as="geometry" />
        </mxCell>
        <mxCell id="4wtoWIcL9oi0uaZ7Ag9l-4" value="Amazon RDS in VPC" style="sketch=0;points=[[0,0,0],[0.25,0,0],[0.5,0,0],[0.75,0,0],[1,0,0],[0,1,0],[0.25,1,0],[0.5,1,0],[0.75,1,0],[1,1,0],[0,0.25,0],[0,0.5,0],[0,0.75,0],[1,0.25,0],[1,0.5,0],[1,0.75,0]];outlineConnect=0;fontColor=#232F3E;fillColor=#C925D1;strokeColor=#ffffff;dashed=0;verticalLabelPosition=bottom;verticalAlign=top;align=center;html=1;fontSize=12;fontStyle=0;aspect=fixed;shape=mxgraph.aws4.resourceIcon;resIcon=mxgraph.aws4.rds;" vertex="1" parent="4wtoWIcL9oi0uaZ7Ag9l-13">
          <mxGeometry x="221" y="67" width="78" height="78" as="geometry" />
        </mxCell>
      </root>
    </mxGraphModel>
  </diagram>
</mxfile>
